# Blender 5.0.1
# www.blender.org
mtllib ButtonCase.mtl
o Cylinder
v -0.195090 1.000000 -0.980785
v 0.000000 1.000000 -1.000000
v -0.382683 1.000000 -0.923880
v 0.195090 1.000000 -0.980785
v -0.555570 1.000000 -0.831470
v 0.382683 1.000000 -0.923880
v -0.707107 1.000000 -0.707107
v 0.555570 1.000000 -0.831470
v -0.831470 1.000000 -0.555570
v 0.707107 1.000000 -0.707107
v -0.923880 1.000000 -0.382683
v 0.831470 1.000000 -0.555570
v -0.980785 1.000000 -0.195090
v 0.923880 1.000000 -0.382683
v -1.000000 1.000000 0.000000
v 0.980785 1.000000 -0.195090
v -0.980785 1.000000 0.195090
v 1.000000 1.000000 0.000000
v -0.923880 1.000000 0.382683
v 0.980785 1.000000 0.195090
v -0.831470 1.000000 0.555570
v 0.923880 1.000000 0.382683
v -0.707107 1.000000 0.707107
v 0.831470 1.000000 0.555570
v -0.555570 1.000000 0.831470
v 0.707107 1.000000 0.707107
v -0.382683 1.000000 0.923880
v 0.555570 1.000000 0.831470
v -0.195090 1.000000 0.980785
v 0.382683 1.000000 0.923880
v 0.000000 1.000000 1.000000
v 0.195090 1.000000 0.980785
v 0.195090 1.000000 0.980785
v 0.000000 1.000000 1.000000
v 0.382683 1.000000 0.923880
v -0.195090 1.000000 0.980785
v 0.555570 1.000000 0.831470
v -0.382683 1.000000 0.923880
v 0.707107 1.000000 0.707107
v -0.555570 1.000000 0.831470
v 0.831470 1.000000 0.555570
v -0.707107 1.000000 0.707107
v 0.923880 1.000000 0.382683
v -0.831470 1.000000 0.555570
v 0.980785 1.000000 0.195090
v -0.923880 1.000000 0.382683
v 1.000000 1.000000 0.000000
v -0.980785 1.000000 0.195090
v 0.980785 1.000000 -0.195090
v -1.000000 1.000000 0.000000
v 0.923880 1.000000 -0.382683
v -0.980785 1.000000 -0.195090
v 0.831470 1.000000 -0.555570
v -0.923880 1.000000 -0.382683
v 0.707107 1.000000 -0.707107
v -0.831470 1.000000 -0.555570
v 0.555570 1.000000 -0.831470
v -0.707107 1.000000 -0.707107
v 0.382683 1.000000 -0.923880
v -0.555570 1.000000 -0.831470
v 0.195090 1.000000 -0.980785
v -0.382683 1.000000 -0.923880
v 0.000000 1.000000 -1.000000
v -0.195090 1.000000 -0.980785
v -0.195090 1.000000 -0.980785
v -0.382683 1.000000 -0.923880
v -0.555570 1.000000 -0.831470
v -0.707107 1.000000 -0.707107
v -0.831470 1.000000 -0.555570
v -0.923880 1.000000 -0.382683
v -0.980785 1.000000 -0.195090
v -1.000000 1.000000 0.000000
v -0.980785 1.000000 0.195090
v -0.923880 1.000000 0.382683
v -0.831470 1.000000 0.555570
v -0.707107 1.000000 0.707107
v -0.555570 1.000000 0.831470
v -0.382683 1.000000 0.923880
v -0.195090 1.000000 0.980785
v 0.000000 1.000000 1.000000
v 0.195090 1.000000 0.980785
v 0.382683 1.000000 0.923880
v 0.555570 1.000000 0.831470
v 0.707107 1.000000 0.707107
v 0.831470 1.000000 0.555570
v 0.923880 1.000000 0.382683
v 0.980785 1.000000 0.195090
v 1.000000 1.000000 0.000000
v 0.980785 1.000000 -0.195090
v 0.923880 1.000000 -0.382683
v 0.831470 1.000000 -0.555570
v 0.707107 1.000000 -0.707107
v 0.555570 1.000000 -0.831470
v 0.382683 1.000000 -0.923880
v 0.195090 1.000000 -0.980785
v 0.000000 1.000000 -1.000000
v -0.195090 1.000000 -0.980785
v -0.382683 1.000000 -0.923880
v -0.555570 1.000000 -0.831470
v -0.707107 1.000000 -0.707107
v -0.831470 1.000000 -0.555570
v -0.923880 1.000000 -0.382683
v -0.980785 1.000000 -0.195090
v -1.000000 1.000000 0.000000
v -0.980785 1.000000 0.195090
v -0.923880 1.000000 0.382683
v -0.831470 1.000000 0.555570
v -0.707107 1.000000 0.707107
v -0.555570 1.000000 0.831470
v -0.382683 1.000000 0.923880
v -0.195090 1.000000 0.980785
v 0.000000 1.000000 1.000000
v 0.195090 1.000000 0.980785
v 0.382683 1.000000 0.923880
v 0.555570 1.000000 0.831470
v 0.707107 1.000000 0.707107
v 0.831470 1.000000 0.555570
v 0.923880 1.000000 0.382683
v 0.980785 1.000000 0.195090
v 1.000000 1.000000 0.000000
v 0.980785 1.000000 -0.195090
v 0.923880 1.000000 -0.382683
v 0.831470 1.000000 -0.555570
v 0.707107 1.000000 -0.707107
v 0.555570 1.000000 -0.831470
v 0.382683 1.000000 -0.923880
v 0.195090 1.000000 -0.980785
v 0.000000 1.000000 -1.000000
v -0.195090 1.227489 -0.980785
v -0.382683 1.227489 -0.923880
v -0.555570 1.227489 -0.831470
v -0.707107 1.227489 -0.707107
v -0.831470 1.227489 -0.555570
v -0.923880 1.227489 -0.382683
v -0.980785 1.227489 -0.195090
v -1.000000 1.227489 0.000000
v -0.980785 1.227489 0.195090
v -0.923880 1.227489 0.382683
v -0.831470 1.227489 0.555570
v -0.707107 1.227489 0.707107
v -0.555570 1.227489 0.831470
v -0.382683 1.227489 0.923880
v -0.195090 1.227489 0.980785
v 0.000000 1.227489 1.000000
v 0.195090 1.227489 0.980785
v 0.382683 1.227489 0.923880
v 0.555570 1.227489 0.831470
v 0.707107 1.227489 0.707107
v 0.831470 1.227489 0.555570
v 0.923880 1.227489 0.382683
v 0.980785 1.227489 0.195090
v 1.000000 1.227489 0.000000
v 0.980785 1.227489 -0.195090
v 0.923880 1.227489 -0.382683
v 0.831470 1.227489 -0.555570
v 0.707107 1.227489 -0.707107
v 0.555570 1.227489 -0.831470
v 0.382683 1.227489 -0.923880
v 0.195090 1.227489 -0.980785
v 0.000000 1.227489 -1.000000
v -0.171670 1.227489 -0.863044
v -0.336743 1.227489 -0.812969
v -0.488875 1.227489 -0.731653
v -0.622220 1.227489 -0.622220
v -0.731653 1.227489 -0.488875
v -0.812969 1.227489 -0.336743
v -0.863044 1.227489 -0.171670
v -0.879952 1.227489 -0.000000
v -0.863044 1.227489 0.171670
v -0.812969 1.227489 0.336743
v -0.731653 1.227489 0.488875
v -0.622220 1.227489 0.622220
v -0.488875 1.227489 0.731653
v -0.336743 1.227489 0.812969
v -0.171670 1.227489 0.863044
v 0.000000 1.227489 0.879952
v 0.171670 1.227489 0.863044
v 0.336743 1.227489 0.812969
v 0.488875 1.227489 0.731653
v 0.622220 1.227489 0.622220
v 0.731653 1.227489 0.488875
v 0.812969 1.227489 0.336743
v 0.863044 1.227489 0.171670
v 0.879952 1.227489 -0.000000
v 0.863044 1.227489 -0.171670
v 0.812969 1.227489 -0.336743
v 0.731653 1.227489 -0.488875
v 0.622220 1.227489 -0.622220
v 0.488875 1.227489 -0.731653
v 0.336743 1.227489 -0.812969
v 0.171670 1.227489 -0.863044
v 0.000000 1.227489 -0.879952
v -0.171670 1.014143 -0.863044
v -0.336743 1.014143 -0.812969
v -0.488875 1.014143 -0.731653
v -0.622220 1.014143 -0.622220
v -0.731653 1.014143 -0.488875
v -0.812969 1.014143 -0.336743
v -0.863044 1.014143 -0.171670
v -0.879952 1.014143 -0.000000
v -0.863044 1.014143 0.171670
v -0.812969 1.014143 0.336743
v -0.731653 1.014143 0.488875
v -0.622220 1.014143 0.622220
v -0.488875 1.014143 0.731653
v -0.336743 1.014143 0.812969
v -0.171670 1.014143 0.863044
v 0.000000 1.014143 0.879952
v 0.171670 1.014143 0.863044
v 0.336743 1.014143 0.812969
v 0.488875 1.014143 0.731653
v 0.622220 1.014143 0.622220
v 0.731653 1.014143 0.488875
v 0.812969 1.014143 0.336743
v 0.863044 1.014143 0.171670
v 0.879952 1.014143 -0.000000
v 0.863044 1.014143 -0.171670
v 0.812969 1.014143 -0.336743
v 0.731653 1.014143 -0.488875
v 0.622220 1.014143 -0.622220
v 0.488875 1.014143 -0.731653
v 0.336743 1.014143 -0.812969
v 0.171670 1.014143 -0.863044
v 0.000000 1.014143 -0.879952
vn -0.0000 1.0000 -0.0000
vn -0.0000 -1.0000 -0.0000
vn 0.7071 -0.0000 0.7071
vn 0.8315 -0.0000 0.5556
vn -0.9808 -0.0000 -0.1951
vn -1.0000 -0.0000 -0.0000
vn 0.9239 -0.0000 0.3827
vn -0.9808 -0.0000 0.1951
vn 0.9808 -0.0000 0.1951
vn -0.9239 -0.0000 0.3827
vn 1.0000 -0.0000 -0.0000
vn -0.8315 -0.0000 0.5556
vn 0.9808 -0.0000 -0.1951
vn -0.7071 -0.0000 0.7071
vn 0.9239 -0.0000 -0.3827
vn -0.5556 -0.0000 0.8315
vn 0.8315 -0.0000 -0.5556
vn -0.3827 -0.0000 0.9239
vn -0.0000 -0.0000 -1.0000
vn -0.1951 -0.0000 -0.9808
vn 0.7071 -0.0000 -0.7071
vn -0.1951 -0.0000 0.9808
vn -0.3827 -0.0000 -0.9239
vn 0.5556 -0.0000 -0.8315
vn -0.0000 -0.0000 1.0000
vn -0.5556 -0.0000 -0.8315
vn 0.3827 -0.0000 -0.9239
vn 0.1951 -0.0000 0.9808
vn -0.7071 -0.0000 -0.7071
vn 0.1951 -0.0000 -0.9808
vn 0.3827 -0.0000 0.9239
vn -0.8315 -0.0000 -0.5556
vn 0.5556 -0.0000 0.8315
vn -0.9239 -0.0000 -0.3827
vt 0.080294 0.080294
vt 0.116663 0.050447
vt 0.341844 0.471731
vt 0.296822 0.485388
vt 0.010000 0.250000
vt 0.014612 0.203178
vt 0.296822 0.014612
vt 0.341844 0.028269
vt 0.471731 0.341844
vt 0.449553 0.383337
vt 0.080294 0.419706
vt 0.050447 0.383337
vt 0.158156 0.028269
vt 0.471731 0.158156
vt 0.485388 0.203178
vt 0.250000 0.490000
vt 0.203178 0.485388
vt 0.028269 0.158156
vt 0.383337 0.050447
vt 0.419706 0.419706
vt 0.028269 0.341844
vt 0.203178 0.014612
vt 0.490000 0.250000
vt 0.158156 0.471731
vt 0.050447 0.116663
vt 0.419706 0.080294
vt 0.383337 0.449553
vt 0.014612 0.296822
vt 0.250000 0.010000
vt 0.485388 0.296822
vt 0.116663 0.449553
vt 0.449553 0.116663
s 1
f 42/1/1 40/2/1 25/2/1 23/1/1
f 6/3/1 4/4/1 61/4/1 59/3/1
f 50/5/1 48/6/1 17/6/1 15/5/1
f 32/7/1 30/8/1 35/8/1 33/7/1
f 14/9/1 12/10/1 53/10/1 51/9/1
f 58/11/1 56/12/1 9/12/1 7/11/1
f 40/2/1 38/13/1 27/13/1 25/2/1
f 22/14/1 20/15/1 45/15/1 43/14/1
f 2/16/1 64/17/1 1/17/1 63/16/1
f 4/4/1 2/16/1 63/16/1 61/4/1
f 48/6/1 46/18/1 19/18/1 17/6/1
f 30/8/1 28/19/1 37/19/1 35/8/1
f 12/10/1 10/20/1 55/20/1 53/10/1
f 56/12/1 54/21/1 11/21/1 9/12/1
f 38/13/1 36/22/1 29/22/1 27/13/1
f 20/15/1 18/23/1 47/23/1 45/15/1
f 64/17/1 62/24/1 3/24/1 1/17/1
f 46/18/1 44/25/1 21/25/1 19/18/1
f 28/19/1 26/26/1 39/26/1 37/19/1
f 10/20/1 8/27/1 57/27/1 55/20/1
f 54/21/1 52/28/1 13/28/1 11/21/1
f 36/22/1 34/29/1 31/29/1 29/22/1
f 18/23/1 16/30/1 49/30/1 47/23/1
f 62/24/1 60/31/1 5/31/1 3/24/1
f 44/25/1 42/1/1 23/1/1 21/25/1
f 26/26/1 24/32/1 41/32/1 39/26/1
f 8/27/1 6/3/1 59/3/1 57/27/1
f 52/28/1 50/5/1 15/5/1 13/28/1
f 34/29/1 32/7/1 33/7/1 31/29/1
f 16/30/1 14/9/1 51/9/1 49/30/1
f 4/4/2 6/3/2 8/27/2 10/20/2 12/10/2 14/9/2 16/30/2 18/23/2 20/15/2 22/14/2 24/32/2 26/26/2 28/19/2 30/8/2 32/7/2 34/29/2 36/22/2 38/13/2 40/2/2 42/1/2 44/25/2 46/18/2 48/6/2 50/5/2 52/28/2 54/21/2 56/12/2 58/11/2 60/31/2 62/24/2 64/17/2 2/16/2
f 63/16/1 1/17/1 65/17/1 96/16/1
f 24/32/1 22/14/1 43/14/1 41/32/1
f 60/31/1 58/11/1 7/11/1 5/31/1
f 81/7/1 82/8/1 114/8/1 113/7/1
f 35/8/1 37/19/1 83/19/1 82/8/1
f 17/6/1 19/18/1 74/18/1 73/6/1
f 53/10/1 55/20/1 92/20/1 91/10/1
f 19/18/1 21/25/1 75/25/1 74/18/1
f 55/20/1 57/27/1 93/27/1 92/20/1
f 1/17/1 3/24/1 66/24/1 65/17/1
f 37/19/1 39/26/1 84/26/1 83/19/1
f 3/24/1 5/31/1 67/31/1 66/24/1
f 39/26/1 41/32/1 85/32/1 84/26/1
f 21/25/1 23/1/1 76/1/1 75/25/1
f 57/27/1 59/3/1 94/3/1 93/27/1
f 23/1/1 25/2/1 77/2/1 76/1/1
f 59/3/1 61/4/1 95/4/1 94/3/1
f 5/31/1 7/11/1 68/11/1 67/31/1
f 41/32/1 43/14/1 86/14/1 85/32/1
f 7/11/1 9/12/1 69/12/1 68/11/1
f 43/14/1 45/15/1 87/15/1 86/14/1
f 25/2/1 27/13/1 78/13/1 77/2/1
f 61/4/1 63/16/1 96/16/1 95/4/1
f 27/13/1 29/22/1 79/22/1 78/13/1
f 9/12/1 11/21/1 70/21/1 69/12/1
f 45/15/1 47/23/1 88/23/1 87/15/1
f 11/21/1 13/28/1 71/28/1 70/21/1
f 47/23/1 49/30/1 89/30/1 88/23/1
f 29/22/1 31/29/1 80/29/1 79/22/1
f 31/29/1 33/7/1 81/7/1 80/29/1
f 13/28/1 15/5/1 72/5/1 71/28/1
f 49/30/1 51/9/1 90/9/1 89/30/1
f 15/5/1 17/6/1 73/6/1 72/5/1
f 51/9/1 53/10/1 91/10/1 90/9/1
f 33/7/1 35/8/1 82/8/1 81/7/1
f 116/26/3 117/32/4 149/32/4 148/26/3
f 68/11/1 69/12/1 101/12/1 100/11/1
f 95/4/1 96/16/1 128/16/1 127/4/1
f 82/8/1 83/19/1 115/19/1 114/8/1
f 69/12/1 70/21/1 102/21/1 101/12/1
f 83/19/1 84/26/1 116/26/1 115/19/1
f 70/21/1 71/28/1 103/28/1 102/21/1
f 84/26/1 85/32/1 117/32/1 116/26/1
f 71/28/1 72/5/1 104/5/1 103/28/1
f 85/32/1 86/14/1 118/14/1 117/32/1
f 72/5/1 73/6/1 105/6/1 104/5/1
f 86/14/1 87/15/1 119/15/1 118/14/1
f 73/6/1 74/18/1 106/18/1 105/6/1
f 87/15/1 88/23/1 120/23/1 119/15/1
f 74/18/1 75/25/1 107/25/1 106/18/1
f 88/23/1 89/30/1 121/30/1 120/23/1
f 75/25/1 76/1/1 108/1/1 107/25/1
f 89/30/1 90/9/1 122/9/1 121/30/1
f 76/1/1 77/2/1 109/2/1 108/1/1
f 90/9/1 91/10/1 123/10/1 122/9/1
f 77/2/1 78/13/1 110/13/1 109/2/1
f 96/16/1 65/17/1 97/17/1 128/16/1
f 91/10/1 92/20/1 124/20/1 123/10/1
f 78/13/1 79/22/1 111/22/1 110/13/1
f 65/17/1 66/24/1 98/24/1 97/17/1
f 92/20/1 93/27/1 125/27/1 124/20/1
f 79/22/1 80/29/1 112/29/1 111/22/1
f 66/24/1 67/31/1 99/31/1 98/24/1
f 93/27/1 94/3/1 126/3/1 125/27/1
f 80/29/1 81/7/1 113/7/1 112/29/1
f 67/31/1 68/11/1 100/11/1 99/31/1
f 94/3/1 95/4/1 127/4/1 126/3/1
f 151/15/1 152/23/1 184/23/1 183/15/1
f 103/28/5 104/5/6 136/5/6 135/28/5
f 117/32/4 118/14/7 150/14/7 149/32/4
f 104/5/6 105/6/8 137/6/8 136/5/6
f 118/14/7 119/15/9 151/15/9 150/14/7
f 105/6/8 106/18/10 138/18/10 137/6/8
f 119/15/9 120/23/11 152/23/11 151/15/9
f 106/18/10 107/25/12 139/25/12 138/18/10
f 120/23/11 121/30/13 153/30/13 152/23/11
f 107/25/12 108/1/14 140/1/14 139/25/12
f 121/30/13 122/9/15 154/9/15 153/30/13
f 108/1/14 109/2/16 141/2/16 140/1/14
f 122/9/15 123/10/17 155/10/17 154/9/15
f 109/2/16 110/13/18 142/13/18 141/2/16
f 128/16/19 97/17/20 129/17/20 160/16/19
f 123/10/17 124/20/21 156/20/21 155/10/17
f 110/13/18 111/22/22 143/22/22 142/13/18
f 97/17/20 98/24/23 130/24/23 129/17/20
f 124/20/21 125/27/24 157/27/24 156/20/21
f 111/22/22 112/29/25 144/29/25 143/22/22
f 98/24/23 99/31/26 131/31/26 130/24/23
f 125/27/24 126/3/27 158/3/27 157/27/24
f 112/29/25 113/7/28 145/7/28 144/29/25
f 99/31/26 100/11/29 132/11/29 131/31/26
f 126/3/27 127/4/30 159/4/30 158/3/27
f 113/7/28 114/8/31 146/8/31 145/7/28
f 100/11/29 101/12/32 133/12/32 132/11/29
f 127/4/30 128/16/19 160/16/19 159/4/30
f 114/8/31 115/19/33 147/19/33 146/8/31
f 101/12/32 102/21/34 134/21/34 133/12/32
f 115/19/33 116/26/3 148/26/3 147/19/33
f 102/21/34 103/28/5 135/28/5 134/21/34
f 186/9/10 187/10/12 219/10/12 218/9/10
f 138/18/1 139/25/1 171/25/1 170/18/1
f 152/23/1 153/30/1 185/30/1 184/23/1
f 139/25/1 140/1/1 172/1/1 171/25/1
f 153/30/1 154/9/1 186/9/1 185/30/1
f 140/1/1 141/2/1 173/2/1 172/1/1
f 154/9/1 155/10/1 187/10/1 186/9/1
f 141/2/1 142/13/1 174/13/1 173/2/1
f 160/16/1 129/17/1 161/17/1 192/16/1
f 155/10/1 156/20/1 188/20/1 187/10/1
f 142/13/1 143/22/1 175/22/1 174/13/1
f 129/17/1 130/24/1 162/24/1 161/17/1
f 156/20/1 157/27/1 189/27/1 188/20/1
f 143/22/1 144/29/1 176/29/1 175/22/1
f 130/24/1 131/31/1 163/31/1 162/24/1
f 157/27/1 158/3/1 190/3/1 189/27/1
f 144/29/1 145/7/1 177/7/1 176/29/1
f 131/31/1 132/11/1 164/11/1 163/31/1
f 158/3/1 159/4/1 191/4/1 190/3/1
f 145/7/1 146/8/1 178/8/1 177/7/1
f 132/11/1 133/12/1 165/12/1 164/11/1
f 159/4/1 160/16/1 192/16/1 191/4/1
f 146/8/1 147/19/1 179/19/1 178/8/1
f 133/12/1 134/21/1 166/21/1 165/12/1
f 147/19/1 148/26/1 180/26/1 179/19/1
f 134/21/1 135/28/1 167/28/1 166/21/1
f 148/26/1 149/32/1 181/32/1 180/26/1
f 135/28/1 136/5/1 168/5/1 167/28/1
f 149/32/1 150/14/1 182/14/1 181/32/1
f 136/5/1 137/6/1 169/6/1 168/5/1
f 150/14/1 151/15/1 183/15/1 182/14/1
f 137/6/1 138/18/1 170/18/1 169/6/1
f 223/4/1 224/16/1 193/17/1 194/24/1 195/31/1 196/11/1 197/12/1 198/21/1 199/28/1 200/5/1 201/6/1 202/18/1 203/25/1 204/1/1 205/2/1 206/13/1 207/22/1 208/29/1 209/7/1 210/8/1 211/19/1 212/26/1 213/32/1 214/14/1 215/15/1 216/23/1 217/30/1 218/9/1 219/10/1 220/20/1 221/27/1 222/3/1
f 173/2/24 174/13/27 206/13/27 205/2/24
f 192/16/25 161/17/28 193/17/28 224/16/25
f 187/10/12 188/20/14 220/20/14 219/10/12
f 174/13/27 175/22/30 207/22/30 206/13/27
f 161/17/28 162/24/31 194/24/31 193/17/28
f 188/20/14 189/27/16 221/27/16 220/20/14
f 175/22/30 176/29/19 208/29/19 207/22/30
f 162/24/31 163/31/33 195/31/33 194/24/31
f 189/27/16 190/3/18 222/3/18 221/27/16
f 176/29/19 177/7/20 209/7/20 208/29/19
f 163/31/33 164/11/3 196/11/3 195/31/33
f 190/3/18 191/4/22 223/4/22 222/3/18
f 177/7/20 178/8/23 210/8/23 209/7/20
f 164/11/3 165/12/4 197/12/4 196/11/3
f 191/4/22 192/16/25 224/16/25 223/4/22
f 178/8/23 179/19/26 211/19/26 210/8/23
f 165/12/4 166/21/7 198/21/7 197/12/4
f 179/19/26 180/26/29 212/26/29 211/19/26
f 166/21/7 167/28/9 199/28/9 198/21/7
f 180/26/29 181/32/32 213/32/32 212/26/29
f 167/28/9 168/5/11 200/5/11 199/28/9
f 181/32/32 182/14/34 214/14/34 213/32/32
f 168/5/11 169/6/13 201/6/13 200/5/11
f 182/14/34 183/15/5 215/15/5 214/14/34
f 169/6/13 170/18/15 202/18/15 201/6/13
f 183/15/5 184/23/6 216/23/6 215/15/5
f 170/18/15 171/25/17 203/25/17 202/18/15
f 184/23/6 185/30/8 217/30/8 216/23/6
f 171/25/17 172/1/21 204/1/21 203/25/17
f 185/30/8 186/9/10 218/9/10 217/30/8
f 172/1/21 173/2/24 205/2/24 204/1/21
